<?xml version="1.0" encoding="UTF-8"?>
<svg version="1.1" xmlns="http://www.w3.org/2000/svg" width="454" height="324">
<path d="M0 0 C0.15117386 7.82529357 -0.28914332 15.463093 -1.08569336 23.24511719 C-1.20112991 24.41566147 -1.31656647 25.58620575 -1.4355011 26.79222107 C-1.81508026 30.62764324 -2.20234237 34.46224582 -2.58984375 38.296875 C-2.85749246 40.97713451 -3.12359965 43.65754655 -3.38978577 46.33795166 C-3.94693146 51.93969554 -4.50807599 57.54102662 -5.07202148 63.14208984 C-5.79432661 70.31613302 -6.51023663 77.49079903 -7.22405148 84.66569138 C-7.84033446 90.86000019 -8.4592607 97.05404445 -9.07875752 103.24803257 C-9.27668652 105.22780115 -9.47430322 107.20760094 -9.67191887 109.18740082 C-10.04130665 112.88258464 -10.41276859 116.57755375 -10.78491211 120.27246094 C-10.8935257 121.36145187 -11.00213928 122.45044281 -11.11404419 123.57243347 C-11.63627474 128.73551432 -12.21383923 133.87019562 -13 139 C-13.85078125 138.98839844 -14.7015625 138.97679687 -15.578125 138.96484375 C-48.50794311 138.7196217 -80.61121669 143.08177524 -111.62792969 154.40917969 C-113.00706543 154.91239746 -113.00706543 154.91239746 -114.4140625 155.42578125 C-115.2282666 155.72911377 -116.0424707 156.03244629 -116.88134766 156.3449707 C-119 157 -119 157 -122 157 C-122 112.12 -122 67.24 -122 21 C-97.93491595 12.57722058 -74.94663964 6.28614363 -50 2 C-49.13310547 1.85014648 -48.26621094 1.70029297 -47.37304688 1.54589844 C-31.78903573 -1.01053384 -15.7398981 -0.18838029 0 0 Z " fill="#EE8355" transform="translate(351,96)"/>
<path d="M0 0 C42.35840393 -0.8866339 82.18102891 6.52037415 122 21 C122 65.88 122 110.76 122 157 C111.91578268 154.75906282 111.91578268 154.75906282 108.30078125 153.44921875 C107.49584229 153.16530273 106.69090332 152.88138672 105.86157227 152.58886719 C105.02037842 152.29141602 104.17918457 151.99396484 103.3125 151.6875 C73.8959208 141.64192021 43.94345408 138.92984441 13 139 C11.30664371 123.0027635 9.64529078 107.00224714 8 91 C7.91951164 90.2172747 7.83902328 89.43454941 7.75609589 88.62810516 C6.66665827 78.02910575 5.58402089 67.42943687 4.51203728 56.82865715 C4.05559637 52.31525638 3.59735973 47.80205628 3.13452148 43.28930664 C2.69166043 38.97003632 2.25425455 34.65024564 1.82074928 30.33002663 C1.65884399 28.72542024 1.4950829 27.1209998 1.32929039 25.51679039 C0.4501177 16.99708861 -0.26193793 8.57881017 0 0 Z " fill="#EE8354" transform="translate(98,96)"/>
<path d="M0 0 C-0.13874615 3.77112931 -0.28721093 7.54181445 -0.4375 11.3125 C-0.47681641 12.38435547 -0.51613281 13.45621094 -0.55664062 14.56054688 C-0.59853516 15.58857422 -0.64042969 16.61660156 -0.68359375 17.67578125 C-0.72025146 18.62364502 -0.75690918 19.57150879 -0.79467773 20.5480957 C-1 23 -1 23 -2 26 C-2.64211426 26.06993164 -3.28422852 26.13986328 -3.94580078 26.21191406 C-32.45929779 29.36151363 -60.16917018 34.38470061 -87.2421875 44.15234375 C-90 45 -90 45 -94 45 C-94.6760953 42.04976597 -94.91193667 40.81627501 -94 38 C-90.78334154 34.70869335 -86.90445891 32.39037783 -83 30 C-82.36255859 29.60377441 -81.72511719 29.20754883 -81.06835938 28.79931641 C-56.83232538 13.83034565 -29.14079823 -0.51831459 0 0 Z " fill="#EE8557" transform="translate(323,60)"/>
<path d="M0 0 C6.52514195 -0.19134067 12.56023081 0.16530641 18.9375 1.5625 C19.74743408 1.73813477 20.55736816 1.91376953 21.3918457 2.09472656 C36.45559187 5.55431509 50.44511057 11.68216658 64 19 C64.68755371 19.36915527 65.37510742 19.73831055 66.08349609 20.11865234 C74.40569917 24.61490838 82.41210397 29.32378321 90 35 C90.7425 35.48339844 91.485 35.96679688 92.25 36.46484375 C94 38 94 38 94.25 41.6875 C94.1675 42.780625 94.085 43.87375 94 45 C86.87046753 44.37184736 80.33633051 41.95667026 73.5625 39.75 C50.16463069 32.28310586 26.41436449 28.33013663 2 26 C1.11126403 22.90049377 0.81456218 20.01495633 0.68359375 16.796875 C0.64169922 15.8171875 0.59980469 14.8375 0.55664062 13.828125 C0.51732422 12.81234375 0.47800781 11.7965625 0.4375 10.75 C0.39431641 9.71875 0.35113281 8.6875 0.30664062 7.625 C0.20074318 5.0834613 0.09866557 2.54182804 0 0 Z " fill="#ED895C" transform="translate(126,60)"/>
<path d="M0 0 C2 1 2 1 3 3 C4.32 2.34 5.64 1.68 7 1 C6 4 6 4 3 6 C5.72478774 9.36591427 9.06856792 10.44226276 13 12 C10.23265514 13.4662651 7.55504014 14.52518555 4.55078125 15.40234375 C3.27750977 15.77842773 3.27750977 15.77842773 1.97851562 16.16210938 C1.09873047 16.41798828 0.21894531 16.67386719 -0.6875 16.9375 C-2.42098496 17.44520983 -4.15406132 17.95431696 -5.88671875 18.46484375 C-6.73669434 18.71476074 -7.58666992 18.96467773 -8.46240234 19.22216797 C-11.67584604 20.20716235 -14.84153351 21.31187841 -18.00317383 22.45141602 C-20 23 -20 23 -24 23 C-24.67782287 20.04222748 -24.93084229 18.81927522 -24 16 C-20.71824939 12.76329302 -16.89371261 10.4393235 -13 8 C-11.81434961 7.2277197 -10.62946432 6.45426362 -9.4453125 5.6796875 C-3.07609902 1.59014839 -3.07609902 1.59014839 0 0 Z " fill="#ED9067" transform="translate(253,82)"/>
<path d="M0 0 C0.66 0.33 1.32 0.66 2 1 C1.67 1.66 1.34 2.32 1 3 C-0.32 3 -1.64 3 -3 3 C-3 46.23 -3 89.46 -3 134 C0.3 134 3.6 134 7 134 C4 136 4 136 -5 138 C-5 93.12 -5 48.24 -5 2 C-3.35 1.34 -1.7 0.68 0 0 Z " fill="#F0B69D" transform="translate(234,115)"/>
<path d="M0 0 C0.99 0 1.98 0 3 0 C3 44.88 3 89.76 3 136 C-7.125 133.75 -7.125 133.75 -11 132 C-9 131 -7 130 -5 129 C-5 129.99 -5 130.98 -5 132 C-3.02 132.33 -1.04 132.66 1 133 C0.67 89.11 0.34 45.22 0 0 Z " fill="#EDB498" transform="translate(217,117)"/>
<path d="M0 0 C20.61434395 -0.45820097 40.63658451 0.52747419 61 4 C61 4.33 61 4.66 61 5 C59.43759968 5.02730408 57.8750573 5.04653226 56.3125 5.0625 C55.44238281 5.07410156 54.57226562 5.08570312 53.67578125 5.09765625 C51 5 51 5 48.6796875 4.53125 C45.07502771 3.81662357 41.47416285 3.62598217 37.8125 3.4375 C36.60823364 3.37381226 36.60823364 3.37381226 35.37963867 3.30883789 C23.92846208 2.77409818 12.46013522 2.91278436 1 3 C1.15355957 3.8446582 1.30711914 4.68931641 1.46533203 5.55957031 C2.99528438 14.15245339 3.21643023 22.30671926 3 31 C2.67 31 2.34 31 2 31 C1.65707666 27.8968174 1.32752438 24.79234258 1 21.6875 C0.90460938 20.82576172 0.80921875 19.96402344 0.7109375 19.07617188 C0.04697989 12.6974363 -0.1109965 6.41081851 0 0 Z " fill="#ECAE92" transform="translate(98,96)"/>
<path d="M0 0 C1.49609225 0.00502697 2.99218613 0.00958775 4.48828125 0.01367188 C8.11722219 0.02457815 11.74610027 0.04177618 15.375 0.0625 C15.375 3.6925 15.375 7.3225 15.375 11.0625 C15.045 11.0625 14.715 11.0625 14.375 11.0625 C14.375 7.7625 14.375 4.4625 14.375 1.0625 C12.4162957 1.20326315 10.45803907 1.3502676 8.5 1.5 C7.40945313 1.58121094 6.31890625 1.66242188 5.1953125 1.74609375 C2.42771029 1.89251703 2.42771029 1.89251703 0.375 3.0625 C-1.8804639 3.1941397 -4.13954665 3.26548293 -6.3984375 3.30859375 C-7.79557771 3.34159453 -9.19271298 3.3748049 -10.58984375 3.40820312 C-12.77909088 3.45511904 -14.96832803 3.49942304 -17.15771484 3.53930664 C-25.26498864 3.69411052 -33.13475173 4.05848139 -41.12060547 5.63256836 C-44.67251752 6.24232827 -48.03069199 6.20074262 -51.625 6.0625 C-51.625 5.7325 -51.625 5.4025 -51.625 5.0625 C-47.66747389 4.41165656 -43.70884689 3.7677566 -39.75 3.125 C-38.64140625 2.94259766 -37.5328125 2.76019531 -36.390625 2.57226562 C-24.16007893 0.59379494 -12.36996994 -0.07279685 0 0 Z " fill="#EBA98C" transform="translate(335.625,95.9375)"/>
<path d="M0 0 C0.33 0 0.66 0 1 0 C2.20568053 4.67201205 2.09382426 9.21496292 2 14 C2.66 14 3.32 14 4 14 C4 16.97 4 19.94 4 23 C5.70313354 22.97643433 5.70313354 22.97643433 7.44067383 22.95239258 C11.65056269 22.89811968 15.86042059 22.86365963 20.07055664 22.83520508 C21.89320067 22.8201124 23.71580836 22.79963605 25.53833008 22.77368164 C28.157155 22.73731897 30.77550007 22.72027876 33.39453125 22.70703125 C34.21025101 22.69154739 35.02597076 22.67606354 35.8664093 22.66011047 C41.60944422 22.65839946 41.60944422 22.65839946 43.73930359 24.52128601 C44.1553334 25.00926163 44.57136322 25.49723724 45 26 C43.41916626 25.95456055 43.41916626 25.95456055 41.80639648 25.90820312 C37.87217991 25.79538266 33.93792698 25.68387638 30.00366211 25.57275391 C28.30540982 25.52460633 26.60716741 25.476109 24.90893555 25.42724609 C22.45884718 25.35681234 20.00872529 25.28766342 17.55859375 25.21875 C16.43160316 25.18593933 16.43160316 25.18593933 15.28184509 25.15246582 C10.85247473 25.02933743 6.43109413 24.97956844 2 25 C1.66178803 22.14633646 1.3293022 19.29219404 1 16.4375 C0.90460938 15.63763672 0.80921875 14.83777344 0.7109375 14.01367188 C0.17285824 9.30547833 -0.10176703 4.73852735 0 0 Z " fill="#E6A486" transform="translate(109,210)"/>
<path d="M0 0 C5.24689842 0.40360757 7.5355912 1.05774171 11 5 C13.13309192 6.23512079 13.13309192 6.23512079 15 7 C15 8.65 15 10.3 15 12 C14.46375 11.690625 13.9275 11.38125 13.375 11.0625 C10.6015043 9.82172561 7.99957163 9.4090325 5 9 C5 8.34 5 7.68 5 7 C0.545 6.01 0.545 6.01 -4 5 C-3.67 4.01 -3.34 3.02 -3 2 C-2.01 1.67 -1.02 1.34 0 1 C0 0.67 0 0.34 0 0 Z " fill="#ED8353" transform="translate(204,92)"/>
<path d="M0 0 C6.93 0.33 13.86 0.66 21 1 C21 1.66 21 2.32 21 3 C22.7325 2.9071875 22.7325 2.9071875 24.5 2.8125 C28.4945695 2.79840981 31.41266464 3.74011363 35.05859375 5.28125 C37.2281507 6.16994205 37.2281507 6.16994205 40.625 6.4375 C44.75823048 7.12637175 46.69437948 8.50062839 50 11 C46.59652612 12.70173694 43.07505865 10.52076354 39.625 9.375 C26.68618981 5.25236371 13.38041791 3.1604706 0 1 C0 0.67 0 0.34 0 0 Z " fill="#E9A688" transform="translate(155,236)"/>
<path d="M0 0 C0.33 0 0.66 0 1 0 C1.02697137 2.60423592 1.04682489 5.20819244 1.0625 7.8125 C1.07087891 8.55048828 1.07925781 9.28847656 1.08789062 10.04882812 C1.10259828 13.29922068 1.03531702 15.89404895 0 19 C-1.04172363 19.12060791 -1.04172363 19.12060791 -2.10449219 19.24365234 C-5.32002513 19.61771285 -8.53500592 19.99633705 -11.75 20.375 C-12.84183594 20.50132813 -13.93367188 20.62765625 -15.05859375 20.7578125 C-21.53163294 21.52385264 -27.9397559 22.44855095 -34.35253906 23.61962891 C-36.94293772 23.99180164 -39.38725903 24.06800933 -42 24 C-42 23.34 -42 22.68 -42 22 C-39.77149723 21.66225668 -37.54216533 21.3299813 -35.3125 21 C-34.07113281 20.814375 -32.82976562 20.62875 -31.55078125 20.4375 C-28.64113629 20.07899589 -25.92299978 19.91057744 -23 20 C-23 19.34 -23 18.68 -23 18 C-15.74 18 -8.48 18 -1 18 C-0.67 12.06 -0.34 6.12 0 0 Z " fill="#EBAF93" transform="translate(321,67)"/>
<path d="M0 0 C8.74996164 1.26103377 16.84568636 3.74696187 25.1875 6.625 C26.42564453 7.04523438 27.66378906 7.46546875 28.93945312 7.8984375 C31.96205542 8.92542206 34.98207117 9.959379 38 11 C37.34 11.66 36.68 12.32 36 13 C33.46875 12.9765625 33.46875 12.9765625 30.5 12.625 C29.03046875 12.45871094 29.03046875 12.45871094 27.53125 12.2890625 C26.27828125 12.14597656 26.27828125 12.14597656 25 12 C24.34 12 23.68 12 23 12 C22.7525 11.071875 22.7525 11.071875 22.5 10.125 C20.09818625 6.72243051 16.99837866 6.77387974 13 6 C13 5.34 13 4.68 13 4 C11.453125 4.0928125 11.453125 4.0928125 9.875 4.1875 C5.76531027 3.98864405 3.51117504 3.05532197 0 1 C0 0.67 0 0.34 0 0 Z " fill="#EA9E7E" transform="translate(179,105)"/>
<path d="M0 0 C0.33 0 0.66 0 1 0 C1 1.98 1 3.96 1 6 C0.14921875 5.98839844 -0.7015625 5.97679687 -1.578125 5.96484375 C-17.41816594 5.846886 -33.20601055 6.87527651 -49 8 C-49 7.67 -49 7.34 -49 7 C-33.7365481 2.2769696 -16.80632529 3.883262 -1 4 C-0.67 2.68 -0.34 1.36 0 0 Z " fill="#EFBEA7" transform="translate(337,229)"/>
<path d="M0 0 C4.875 1.875 4.875 1.875 6 3 C6.04092937 5.33297433 6.04241723 7.66705225 6 10 C0.73378394 9.40421223 -3.94408019 8.18691204 -8.9375 6.4375 C-9.62134766 6.20353516 -10.30519531 5.96957031 -11.00976562 5.72851562 C-12.67508501 5.15788171 -14.33782493 4.57972902 -16 4 C-16 3.67 -16 3.34 -16 3 C-14.54176788 2.9729957 -13.08339325 2.95360213 -11.625 2.9375 C-10.81289062 2.92589844 -10.00078125 2.91429688 -9.1640625 2.90234375 C-7 3 -7 3 -5 4 C-5 4.66 -5 5.32 -5 6 C-4.0925 5.938125 -3.185 5.87625 -2.25 5.8125 C1.28982642 6.01672076 2.44931155 6.64551835 5 9 C4.81171228 6.55519921 4.81171228 6.55519921 4 4 C2.03241727 2.63979849 2.03241727 2.63979849 0 2 C0 1.34 0 0.68 0 0 Z " fill="#EBAA8E" transform="translate(214,95)"/>
<path d="M0 0 C-0.66 0 -1.32 0 -2 0 C-2 0.66 -2 1.32 -2 2 C-3.4540625 2.1546875 -3.4540625 2.1546875 -4.9375 2.3125 C-7.92727476 2.72841625 -10.59549199 3.48852145 -13.4375 4.5 C-17.64644682 5.98253281 -21.56181028 6.59652821 -26 7 C-22.75910357 3.75910357 -18.4484235 3.10103786 -14.125 1.8125 C-13.21363281 1.52697266 -12.30226563 1.24144531 -11.36328125 0.94726562 C-10.48285156 0.68236328 -9.60242188 0.41746094 -8.6953125 0.14453125 C-7.89109863 -0.09934326 -7.08688477 -0.34321777 -6.25830078 -0.59448242 C-3.81725256 -1.03281551 -2.33059346 -0.78053209 0 0 Z " fill="#E9AC8F" transform="translate(306,63)"/>
<path d="M0 0 C11.25 0 11.25 0 16 1 C16 1.33 16 1.66 16 2 C11.71 2 7.42 2 3 2 C2.67 8.6 2.34 15.2 2 22 C1.67 22 1.34 22 1 22 C0.67 14.74 0.34 7.48 0 0 Z " fill="#EAB59D" transform="translate(126,60)"/>
<path d="M0 0 C0.33 0 0.66 0 1 0 C2.20568053 4.67201205 2.09382426 9.21496292 2 14 C2.66 14 3.32 14 4 14 C4 16.97 4 19.94 4 23 C5.65 23.33 7.3 23.66 9 24 C9 24.33 9 24.66 9 25 C6.69 25 4.38 25 2 25 C1.66178803 22.14633646 1.3293022 19.29219404 1 16.4375 C0.90460938 15.63763672 0.80921875 14.83777344 0.7109375 14.01367188 C0.17285824 9.30547833 -0.10176703 4.73852735 0 0 Z " fill="#EDB69E" transform="translate(109,210)"/>
<path d="M0 0 C0.33 0 0.66 0 1 0 C1 5.94 1 11.88 1 18 C-8 16.875 -8 16.875 -12 15 C-10 14 -8 13 -6 12 C-6 12.99 -6 13.98 -6 15 C-3.03 15.495 -3.03 15.495 0 16 C0 10.72 0 5.44 0 0 Z " fill="#D98B6A" transform="translate(218,234)"/>
<path d="M0 0 C0.33 0 0.66 0 1 0 C1 1.98 1 3.96 1 6 C-12.86 5.505 -12.86 5.505 -27 5 C-27 4.67 -27 4.34 -27 4 C-18.42 4 -9.84 4 -1 4 C-0.67 2.68 -0.34 1.36 0 0 Z " fill="#DC8A65" transform="translate(337,229)"/>
<path d="M0 0 C8.26565816 1.25889784 16.05964735 3.39950295 24 6 C24 6.33 24 6.66 24 7 C16.57142857 7.14285714 16.57142857 7.14285714 13 6 C13 5.34 13 4.68 13 4 C11.453125 4.0928125 11.453125 4.0928125 9.875 4.1875 C5.76531027 3.98864405 3.51117504 3.05532197 0 1 C0 0.67 0 0.34 0 0 Z " fill="#EBB198" transform="translate(179,105)"/>
<path d="M0 0 C6.93 0.33 13.86 0.66 21 1 C21.33 1.99 21.66 2.98 22 4 C19.45813394 3.68905914 16.91651402 3.37629464 14.375 3.0625 C13.66214844 2.97548828 12.94929687 2.88847656 12.21484375 2.79882812 C8.12408039 2.29217395 4.06157365 1.7110957 0 1 C0 0.67 0 0.34 0 0 Z " fill="#EDB197" transform="translate(155,236)"/>
<path d="M0 0 C1.46313772 0.76167457 2.92036661 1.53470707 4.375 2.3125 C5.18710938 2.74175781 5.99921875 3.17101562 6.8359375 3.61328125 C9 5 9 5 11 8 C10.01 8.495 10.01 8.495 9 9 C8.34 8.34 7.68 7.68 7 7 C5.05396726 6.40929986 5.05396726 6.40929986 3 6 C2.01 5.67 1.02 5.34 0 5 C0 3.35 0 1.7 0 0 Z " fill="#EAA384" transform="translate(203,87)"/>
<path d="M0 0 C-2.79607022 1.46491151 -5.57006766 2.62245922 -8.5625 3.625 C-9.70912109 4.01558594 -9.70912109 4.01558594 -10.87890625 4.4140625 C-13 5 -13 5 -16 5 C-16 4.34 -16 3.68 -16 3 C-10.47239641 0.89424625 -5.93002267 -0.37851209 0 0 Z " fill="#ECAF96" transform="translate(258,96)"/>
<path d="M0 0 C0.33 0 0.66 0 1 0 C0.67 5.61 0.34 11.22 0 17 C-0.33 17 -0.66 17 -1 17 C-1.22262606 14.91814549 -1.42757926 12.83439574 -1.625 10.75 C-1.74101562 9.58984375 -1.85703125 8.4296875 -1.9765625 7.234375 C-1.99955595 4.06127909 -1.69705154 2.61682756 0 0 Z " fill="#EDB69C" transform="translate(339,211)"/>
<path d="M0 0 C-2.88628401 1.57554035 -5.53342384 2.46276373 -8.75 3.125 C-9.94882813 3.37636719 -9.94882813 3.37636719 -11.171875 3.6328125 C-11.77515625 3.75398437 -12.3784375 3.87515625 -13 4 C-13 3.01 -13 2.02 -13 1 C-8.60563789 0.14256349 -4.47427924 -0.08948558 0 0 Z " fill="#E9AE91" transform="translate(263,242)"/>
<path d="M0 0 C3.63 0 7.26 0 11 0 C6.60171741 2.1991413 3.81449408 2.51855059 -1 3 C-0.67 2.01 -0.34 1.02 0 0 Z " fill="#ECA78B" transform="translate(267,91)"/>
<path d="M0 0 C3.3 0 6.6 0 10 0 C7.09907498 1.93395001 6.10325263 2.30131941 2.8125 2.625 C1.554375 2.74875 0.29625 2.8725 -1 3 C-0.67 2.01 -0.34 1.02 0 0 Z " fill="#EAA88E" transform="translate(231,249)"/>
<path d="M0 0 C0 0.66 0 1.32 0 2 C-2.52475462 3.26237731 -4.31200466 3.09856404 -7.125 3.0625 C-8.03507812 3.05347656 -8.94515625 3.04445313 -9.8828125 3.03515625 C-10.58148438 3.02355469 -11.28015625 3.01195313 -12 3 C-7.74560485 0.81962249 -4.84315381 0 0 0 Z " fill="#ECAE93" transform="translate(274,104)"/>
<path d="M0 0 C1.41750563 0.11509661 2.83401169 0.24253658 4.25 0.375 C5.03890625 0.44460937 5.8278125 0.51421875 6.640625 0.5859375 C9 1 9 1 13 3 C9.37 3 5.74 3 2 3 C2 2.34 2 1.68 2 1 C1.34 0.67 0.68 0.34 0 0 Z " fill="#ECB299" transform="translate(165,102)"/>
<path d="M0 0 C-0.375 1.9375 -0.375 1.9375 -1 4 C-3.70879335 5.35439668 -6.00933268 5.06501451 -9 5 C-2.87096774 0 -2.87096774 0 0 0 Z " fill="#EAA88A" transform="translate(264,77)"/>
<path d="M0 0 C0.33 0.99 0.66 1.98 1 3 C3.00016466 4.20882096 3.00016466 4.20882096 5 5 C3 6 3 6 1.0546875 5.44140625 C0.33539063 5.15136719 -0.38390625 4.86132812 -1.125 4.5625 C-1.84945312 4.27503906 -2.57390625 3.98757812 -3.3203125 3.69140625 C-4.15175781 3.34916016 -4.15175781 3.34916016 -5 3 C-4.360625 2.690625 -3.72125 2.38125 -3.0625 2.0625 C-1.06389179 1.1654837 -1.06389179 1.1654837 0 0 Z " fill="#EDAF96" transform="translate(211,246)"/>
<path d="M0 0 C4.875 1.875 4.875 1.875 6 3 C6.04092937 5.33297433 6.04241723 7.66705225 6 10 C4.68 9.67 3.36 9.34 2 9 C2.99 9 3.98 9 5 9 C4.81171228 6.55519921 4.81171228 6.55519921 4 4 C2.03241727 2.63979849 2.03241727 2.63979849 0 2 C0 1.34 0 0.68 0 0 Z " fill="#F2C7B2" transform="translate(214,95)"/>
<path d="M0 0 C-4.10457614 2.98514628 -6.97745369 3.2954439 -12 3 C-4.82142857 -1.78571429 -4.82142857 -1.78571429 0 0 Z " fill="#EAAE92" transform="translate(249,112)"/>
<path d="M0 0 C0.66 0.33 1.32 0.66 2 1 C-0.25 3.5625 -0.25 3.5625 -3 6 C-4.32 5.67 -5.64 5.34 -7 5 C-4.69 3.35 -2.38 1.7 0 0 Z " fill="#ECAF93" transform="translate(243,88)"/>
<path d="M0 0 C6.625 -0.25 6.625 -0.25 10 2 C7.36 2.33 4.72 2.66 2 3 C2 2.34 2 1.68 2 1 C1.34 0.67 0.68 0.34 0 0 Z " fill="#E89C76" transform="translate(154,66)"/>
<path d="M0 0 C0.33 0 0.66 0 1 0 C1 1.98 1 3.96 1 6 C-1.31 6 -3.62 6 -6 6 C-5.34 5.34 -4.68 4.68 -4 4 C-3.01 4 -2.02 4 -1 4 C-0.67 2.68 -0.34 1.36 0 0 Z " fill="#EBBBA3" transform="translate(337,229)"/>
<path d="M0 0 C2.97 1.65 5.94 3.3 9 5 C5.79937313 6.60031344 3.27728194 5.03173691 0 4 C0 2.68 0 1.36 0 0 Z " fill="#EDB195" transform="translate(193,81)"/>
<path d="M0 0 C0.99 0.33 1.98 0.66 3 1 C3 2.65 3 4.3 3 6 C1.68 5.34 0.36 4.68 -1 4 C-0.67 2.68 -0.34 1.36 0 0 Z " fill="#E58463" transform="translate(216,98)"/>
</svg>
